<?xml version="1.0" standalone="no"?>
<!DOCTYPE svg PUBLIC "-//W3C//DTD SVG 20010904//EN"
 "http://www.w3.org/TR/2001/REC-SVG-20010904/DTD/svg10.dtd">
<svg version="1.0" xmlns="http://www.w3.org/2000/svg"
 width="427.000000pt" height="257.000000pt" viewBox="0 0 427.000000 257.000000"
 preserveAspectRatio="xMidYMid meet">
<metadata>
Created by potrace 1.13, written by Peter Selinger 2001-2015
</metadata>
<g transform="translate(0.000000,257.000000) scale(0.100000,-0.100000)"
fill="#000000" stroke="none">
<path d="M540 2492 l0 -77 48 -29 c91 -56 133 -76 155 -72 21 3 22 7 25 129
l3 127 -116 0 -115 0 0 -78z"/>
<path d="M1880 2436 l0 -134 28 -11 c41 -17 132 -108 132 -131 0 -11 5 -20 10
-20 6 0 10 78 10 215 l0 215 -90 0 -90 0 0 -134z"/>
<path d="M3030 2422 l0 -148 61 -59 c33 -33 68 -73 76 -90 30 -58 158 -205
178 -205 8 0 10 20 7 61 -5 70 0 77 66 101 l47 16 -45 1 c-26 1 -51 6 -56 11
-7 7 -9 87 -6 235 l5 225 -167 0 -166 0 0 -148z"/>
<path d="M1684 2321 c-17 -4 -36 -11 -42 -15 -15 -9 -16 -26 -2 -26 23 0 115
-73 116 -91 1 -11 9 -28 18 -38 10 -11 18 -33 18 -51 1 -20 4 -27 9 -18 7 10
11 10 21 0 9 -9 9 -12 -1 -12 -7 0 -10 -4 -7 -9 4 -5 18 -5 36 2 26 10 32 8
55 -13 14 -14 24 -32 22 -41 -2 -9 0 -24 6 -34 7 -12 6 -16 -1 -11 -6 4 -16
-3 -23 -15 -8 -17 -8 -23 1 -29 16 -10 28 -8 58 9 27 15 40 8 23 -12 -17 -22
11 -42 38 -28 11 6 32 11 48 11 32 1 53 14 76 50 12 20 14 35 7 70 -5 25 -9
48 -10 52 0 4 -16 18 -36 32 -29 20 -41 23 -61 15 -37 -14 -74 19 -79 71 -2
14 -13 33 -26 44 -13 10 -21 21 -19 24 2 4 -21 19 -51 35 -58 30 -140 42 -194
28z"/>
<path d="M3020 1917 c0 -123 2 -147 15 -147 8 0 29 -13 47 -29 l33 -29 -2
-129 c-1 -70 -2 -137 -3 -148 0 -18 -7 -20 -67 -20 -38 -1 -85 -4 -105 -8 -38
-8 -38 -8 -19 -28 11 -12 25 -34 31 -50 7 -15 21 -31 32 -35 11 -3 18 -8 15
-10 -2 -2 -24 5 -48 16 -56 25 -73 25 -66 1 4 -17 0 -18 -41 -15 -25 3 -49 7
-54 10 -5 3 -15 1 -22 -5 -8 -7 -30 -10 -50 -8 -20 2 -38 1 -41 -3 -5 -8 156
-65 238 -83 32 -7 58 -17 58 -22 0 -6 14 -33 30 -61 16 -28 29 -54 29 -58 0
-8 -993 -8 -1015 0 -13 5 -14 8 -3 15 9 6 8 9 -8 9 -11 0 -24 4 -30 9 -11 12
-93 20 -254 27 -133 5 -155 9 -146 23 11 17 -47 68 -74 66 -24 -2 -25 -4 -22
-65 l4 -63 -61 5 c-55 4 -65 8 -101 44 -22 21 -69 82 -104 134 -34 53 -82 113
-106 135 -24 22 -58 55 -74 74 -17 19 -48 52 -69 74 -20 22 -37 44 -37 49 0 4
-4 8 -10 8 -10 0 15 -68 49 -135 12 -21 21 -46 21 -55 0 -30 58 -105 154 -200
88 -87 112 -120 86 -120 -5 0 -10 -9 -10 -19 0 -17 -11 -20 -117 -26 -74 -5
-155 -4 -218 4 -55 6 -117 11 -137 11 -21 0 -38 4 -38 9 0 5 10 7 22 3 15 -3
19 -2 14 7 -4 6 -22 11 -39 10 -38 -1 -97 8 -105 15 -3 3 10 6 28 6 47 0 26
17 -28 23 -23 2 -50 11 -60 19 -9 9 -30 18 -45 22 -15 4 -25 11 -22 16 3 5
-12 13 -34 16 -23 4 -39 10 -36 14 3 4 -7 10 -21 13 -20 3 -28 -1 -36 -19 -10
-21 -7 -29 18 -56 16 -17 23 -28 15 -23 -7 4 -16 4 -20 -1 -3 -5 -23 -17 -44
-27 -30 -13 -43 -15 -59 -6 -16 9 -19 8 -12 -3 6 -11 5 -11 -9 1 -9 7 -17 9
-17 5 0 -5 -20 -8 -45 -6 -48 4 -56 16 -28 38 17 12 16 13 -4 14 -13 0 -23 5
-23 10 0 6 -22 10 -48 10 -26 0 -53 5 -60 12 -9 9 -12 -121 -12 -585 l0 -597
2135 0 2135 0 0 538 0 538 -116 -4 c-88 -4 -115 -2 -110 7 5 8 -3 11 -27 9
-19 -1 -42 4 -50 10 -9 8 -60 15 -129 18 -62 3 -140 9 -172 13 -63 9 -131 -3
-154 -26 -7 -7 -22 -13 -32 -13 -10 0 -26 -7 -34 -16 -9 -8 -16 -12 -16 -9 0
4 -11 0 -25 -9 -22 -14 -29 -15 -49 -4 -37 20 -103 66 -185 126 -41 31 -91 64
-110 74 l-36 18 55 -6 c30 -3 70 -10 88 -16 20 -6 77 -7 148 -3 111 7 114 8
114 31 0 21 -5 24 -34 24 l-33 0 -6 102 c-3 56 -1 110 4 120 13 24 11 105 -3
131 -6 12 -45 58 -87 103 -42 44 -104 121 -138 170 -33 49 -73 100 -87 113
l-26 24 0 -146z"/>
<path d="M1896 1839 c-36 -52 -13 -110 58 -143 140 -66 155 -29 37 88 l-78 78
-17 -23z"/>
<path d="M830 1570 c-46 -73 -106 -230 -97 -253 6 -17 277 1 277 18 0 8 -25
15 -70 19 -82 8 -78 3 -88 148 -7 88 -8 91 -22 68z"/>
<path d="M0 1420 l0 -90 188 2 187 3 3 78 c2 56 -1 78 -10 81 -7 3 -93 7 -190
11 l-178 6 0 -91z"/>
<path d="M2084 1410 c-15 -22 -29 -60 -32 -86 l-5 -46 101 4 c56 2 103 6 105
8 3 3 8 23 11 45 l7 40 -76 38 c-41 20 -77 37 -80 37 -3 0 -17 -18 -31 -40z"/>
</g>
</svg>
